<svg width="115" height="30" viewBox="0 0 115 30" fill="none" xmlns="http://www.w3.org/2000/svg">
<path d="M20.992 23.256C20.1813 23.256 19.5627 23.0427 19.136 22.616C18.7093 22.1893 18.4213 21.6453 18.272 20.984C18.1227 20.3227 18.0267 19.64 17.984 18.936C17.984 18.5307 18.0053 18.0507 18.048 17.496C18.0907 16.9413 18.144 16.408 18.208 15.896C18.2933 15.3627 18.3573 14.968 18.4 14.712H11.072C9.70667 16.1413 8.40533 17.5387 7.168 18.904C5.952 20.248 4.75733 21.6133 3.584 23H0.384C0.938667 22.488 1.664 21.8053 2.56 20.952C3.47733 20.0773 4.512 19.0853 5.664 17.976C6.816 16.8667 8.01067 15.6933 9.248 14.456C10.5067 13.1973 11.7653 11.9387 13.024 10.68C14.2827 9.4 15.4667 8.17333 16.576 7C17.7067 5.80533 18.7093 4.728 19.584 3.768C20.0107 3.29867 20.4053 2.82933 20.768 2.36C21.152 1.86933 21.5787 1.464 22.048 1.144C22.5173 0.823999 23.0933 0.664 23.776 0.664H26.08C25.7173 1.00533 25.3547 1.58133 24.992 2.392C24.6293 3.20267 24.2987 4.07733 24 5.016C23.7227 5.95467 23.488 6.808 23.296 7.576C23.0187 8.728 22.7307 9.976 22.432 11.32C22.1547 12.664 21.9307 13.9973 21.76 15.32C21.5893 16.6427 21.536 17.8693 21.6 19C21.6213 19.4053 21.696 19.832 21.824 20.28C21.9733 20.7067 22.176 21.08 22.432 21.4C22.7093 21.6987 23.0507 21.848 23.456 21.848C23.8187 21.848 24.2133 21.7093 24.64 21.432L24.832 21.72C24.5547 22.1467 24.0213 22.5093 23.232 22.808C22.464 23.1067 21.7173 23.256 20.992 23.256ZM8.192 7.032C7.85067 6.66933 7.59467 6.296 7.424 5.912C7.27467 5.528 7.2 5.16533 7.2 4.824C7.2 4.39733 7.28533 3.992 7.456 3.608C7.648 3.20267 7.872 2.86133 8.128 2.584C8.64 2.008 9.28 1.58133 10.048 1.304C10.816 1.02667 11.6267 0.855999 12.48 0.792C13.3547 0.706666 14.1867 0.664 14.976 0.664H22.144C21.696 1.112 21.0133 1.464 20.096 1.72C19.2 1.95467 18.2187 2.136 17.152 2.264C16.0853 2.37067 15.0507 2.47733 14.048 2.584C13.0667 2.66933 12.256 2.78667 11.616 2.936C10.4853 3.192 9.62133 3.68267 9.024 4.408C8.448 5.13333 8.17067 6.008 8.192 7.032ZM12.48 13.112H18.624C18.88 11.704 19.1787 10.296 19.52 8.888C19.8827 7.48 20.2027 6.24267 20.48 5.176C19.1787 6.41333 17.8453 7.704 16.48 9.048C15.136 10.3707 13.8027 11.7253 12.48 13.112ZM26.144 29.432C25.6107 29.432 25.0453 29.3467 24.448 29.176C23.872 29.0267 23.392 28.76 23.008 28.376C22.6027 27.992 22.4 27.48 22.4 26.84C22.4 26.392 22.5387 25.976 22.816 25.592C23.0933 25.208 23.4773 25.016 23.968 25.016C24.2667 25.016 24.544 25.0907 24.8 25.24C25.056 25.4107 25.2267 25.6133 25.312 25.848C25.2693 25.8693 25.2053 25.9333 25.12 26.04C25.0347 26.1467 24.9813 26.2213 24.96 26.264C24.8107 26.5627 24.736 26.872 24.736 27.192C24.736 27.5973 24.8747 27.9173 25.152 28.152C25.4507 28.408 25.824 28.536 26.272 28.536C26.848 28.536 27.4453 28.3227 28.064 27.896C28.7467 27.4053 29.28 26.7653 29.664 25.976C30.0693 25.208 30.3893 24.5147 30.624 23.896L32.448 19.032C32.064 19.5013 31.6587 19.9813 31.232 20.472C30.8267 20.9413 30.5707 21.2293 30.464 21.336C29.6533 22.1467 28.928 22.6587 28.288 22.872C27.648 23.0853 27.0827 23.192 26.592 23.192C26.08 23.192 25.6427 22.968 25.28 22.52C24.9387 22.072 24.768 21.4213 24.768 20.568C24.768 20.1413 24.832 19.5973 24.96 18.936C25.088 18.2747 25.2693 17.5707 25.504 16.824C25.7387 16.056 26.0053 15.3093 26.304 14.584C26.624 13.8373 26.9653 13.176 27.328 12.6C27.8827 11.7253 28.5013 11.16 29.184 10.904C29.8667 10.648 30.7307 10.52 31.776 10.52C31.8613 10.52 31.904 10.5627 31.904 10.648C31.904 10.7333 31.84 10.84 31.712 10.968C31.4133 11.224 31.0507 11.672 30.624 12.312C30.1973 12.952 29.7813 13.656 29.376 14.424C28.992 15.192 28.672 15.928 28.416 16.632C28.2453 17.1227 28.0747 17.6987 27.904 18.36C27.7547 19.0213 27.68 19.5973 27.68 20.088C27.68 20.4293 27.7227 20.7067 27.808 20.92C27.9147 21.112 28.0747 21.208 28.288 21.208C28.6293 21.208 29.0987 20.952 29.696 20.44C30.592 19.6933 31.4027 18.776 32.128 17.688C32.8533 16.6 33.472 15.4693 33.984 14.296C34.2827 13.6133 34.528 13.0373 34.72 12.568C34.912 12.0773 35.1253 11.6827 35.36 11.384C35.5947 11.0853 35.9253 10.872 36.352 10.744C36.7787 10.5947 37.3547 10.52 38.08 10.52H39.392C38.9867 10.776 38.5813 11.256 38.176 11.96C37.7707 12.6427 37.3867 13.4533 37.024 14.392C36.7467 15.0747 36.4587 15.8213 36.16 16.632C35.8827 17.4427 35.5947 18.264 35.296 19.096C35.04 19.864 34.7627 20.7067 34.464 21.624C34.1653 22.52 33.824 23.3947 33.44 24.248C33.056 25.1227 32.608 25.88 32.096 26.52C31.3707 27.416 30.4853 28.12 29.44 28.632C28.3947 29.1653 27.296 29.432 26.144 29.432ZM40.7875 23C40.4462 23 40.1902 22.8613 40.0195 22.584C39.8702 22.3067 39.7955 21.944 39.7955 21.496C39.7955 20.8773 39.8915 20.152 40.0835 19.32C40.2968 18.488 40.5528 17.624 40.8515 16.728C41.1715 15.832 41.4915 14.9787 41.8115 14.168C42.1315 13.336 42.4088 12.632 42.6435 12.056H40.8835C40.7128 12.056 40.6275 11.992 40.6275 11.864C40.6275 11.736 40.7235 11.5653 40.9155 11.352C41.1075 11.1173 41.3315 10.9147 41.5875 10.744C41.8435 10.5733 42.0568 10.488 42.2275 10.488H43.3155C43.8488 9.22933 44.3502 8.056 44.8195 6.968C45.2888 5.85867 45.8755 4.68533 46.5795 3.448C46.7502 3.14933 46.9102 2.872 47.0595 2.616C47.2088 2.33867 47.3795 2.09333 47.5715 1.88C46.4195 2.02933 45.2355 2.25333 44.0195 2.552C42.8248 2.85067 41.7582 3.23467 40.8195 3.704C39.8808 4.17333 39.2195 4.728 38.8355 5.368C38.8142 5.432 38.7715 5.464 38.7075 5.464C38.6648 5.464 38.6328 5.42133 38.6115 5.336C38.5688 5.25067 38.5582 5.15466 38.5795 5.048C38.7928 4.49333 39.0595 3.96 39.3795 3.448C39.6995 2.936 40.0088 2.53067 40.3075 2.232C40.7768 1.74133 41.4168 1.38933 42.2275 1.176C43.0382 0.962666 43.8702 0.823999 44.7235 0.759998C45.5982 0.695999 46.3448 0.664 46.9635 0.664H53.2995C54.0462 0.664 54.7075 0.642666 55.2835 0.599998C55.8808 0.535999 56.3822 0.504 56.7875 0.504C57.4488 0.504 57.8328 0.664 57.9395 0.983999C57.9608 1.06933 57.9715 1.15467 57.9715 1.24C57.9928 1.304 58.0035 1.38933 58.0035 1.496C58.0035 1.92267 57.9075 2.41333 57.7155 2.968C57.5235 3.50133 57.3102 4.024 57.0755 4.536C56.8622 5.02667 56.6915 5.432 56.5635 5.752C56.5422 5.85867 56.4782 5.93333 56.3715 5.976C56.2862 6.01867 56.2008 6.04 56.1155 6.04C56.0088 6.04 55.9128 6.01867 55.8275 5.976C55.7635 5.93333 55.7422 5.79467 55.7635 5.56C55.8062 5.304 55.8595 5.016 55.9235 4.696C55.9875 4.376 56.0195 4.09867 56.0195 3.864C56.0195 3.18133 55.7422 2.65867 55.1875 2.296C54.6542 1.912 53.9822 1.72 53.1715 1.72C52.5742 1.72 52.0835 1.77333 51.6995 1.88C51.3155 1.96533 51.0062 2.18933 50.7715 2.552C49.9182 3.81067 49.1395 5.10133 48.4355 6.424C47.7528 7.74667 47.1128 9.10133 46.5155 10.488H54.8675C54.9315 10.488 54.8888 10.616 54.7395 10.872C54.6115 11.128 54.4408 11.3947 54.2275 11.672C54.0355 11.928 53.8648 12.056 53.7155 12.056H45.8115C45.5768 12.6533 45.2995 13.3787 44.9795 14.232C44.6595 15.0853 44.3608 15.928 44.0835 16.76C43.8275 17.592 43.6248 18.3067 43.4755 18.904C43.3475 19.416 43.2835 19.8747 43.2835 20.28C43.2835 20.8133 43.4435 21.2187 43.7635 21.496C44.1048 21.7733 44.6915 21.912 45.5235 21.912C46.6755 21.912 47.8275 21.8693 48.9795 21.784C50.1315 21.6773 51.2622 21.464 52.3715 21.144C53.3315 20.8667 54.1848 20.4933 54.9315 20.024C55.6995 19.5547 56.2542 18.968 56.5955 18.264C56.6382 18.1787 56.7022 18.136 56.7875 18.136C56.9368 18.136 57.0115 18.2533 57.0115 18.488C57.0115 18.5307 57.0008 18.584 56.9795 18.648C56.9795 18.712 56.9688 18.7867 56.9475 18.872C56.7768 19.4267 56.5742 19.9173 56.3395 20.344C56.1048 20.7707 55.8595 21.1333 55.6035 21.432C55.0062 22.1573 54.2382 22.6053 53.2995 22.776C52.3608 22.9253 51.4222 23 50.4835 23H40.7875ZM62.4615 23.64C61.7362 23.64 61.0535 23.544 60.4135 23.352C59.7735 23.16 59.2508 22.8613 58.8455 22.456C58.4402 22.0507 58.2375 21.5387 58.2375 20.92C58.2375 20.4507 58.3762 19.992 58.6535 19.544C58.9522 19.096 59.3682 18.872 59.9015 18.872C60.1362 18.872 60.3495 18.9253 60.5415 19.032C60.7335 19.1387 60.8615 19.2773 60.9255 19.448C60.9042 19.4693 60.8508 19.544 60.7655 19.672C60.6802 19.7787 60.6268 19.8533 60.6055 19.896C60.4135 20.28 60.3175 20.632 60.3175 20.952C60.3175 21.4 60.4775 21.7627 60.7975 22.04C61.1388 22.3173 61.5762 22.456 62.1095 22.456C62.8135 22.4347 63.4215 22.1893 63.9335 21.72C64.4668 21.2293 64.7335 20.6533 64.7335 19.992C64.7335 19.608 64.6482 19.2453 64.4775 18.904C64.2002 18.328 63.8268 17.8373 63.3575 17.432C62.9095 17.0053 62.4722 16.5787 62.0455 16.152C61.6402 15.7253 61.3415 15.2133 61.1495 14.616C61.0642 14.3387 61.0215 13.9973 61.0215 13.592C61.0215 13.1867 61.0748 12.792 61.1815 12.408C61.2882 12.0027 61.4482 11.6613 61.6615 11.384C61.9602 10.9787 62.4082 10.6053 63.0055 10.264C63.7522 9.85867 64.6268 9.656 65.6295 9.656C66.2908 9.656 66.8775 9.74133 67.3895 9.912C67.7735 10.04 68.1042 10.2533 68.3815 10.552C68.6802 10.8293 68.8295 11.2027 68.8295 11.672C68.8295 12.2053 68.6588 12.7173 68.3175 13.208C67.9975 13.6773 67.5282 13.9653 66.9095 14.072C66.5255 14.1147 66.1842 14.0507 65.8855 13.88C65.5868 13.688 65.4802 13.336 65.5655 12.824C66.1415 12.696 66.5575 12.4613 66.8135 12.12C66.9415 11.928 67.0055 11.736 67.0055 11.544C67.0055 11.1813 66.8562 10.936 66.5575 10.808C66.2802 10.6587 66.0135 10.584 65.7575 10.584C65.4375 10.584 65.1282 10.6267 64.8295 10.712C64.5522 10.776 64.2962 10.8933 64.0615 11.064C63.5922 11.4693 63.3575 11.9387 63.3575 12.472C63.3575 12.5573 63.3682 12.6533 63.3895 12.76C63.4322 12.8667 63.4642 12.9733 63.4855 13.08C63.5922 13.3573 63.7522 13.6133 63.9655 13.848C64.1788 14.0827 64.3922 14.2853 64.6055 14.456C65.1388 14.84 65.6828 15.256 66.2375 15.704C66.8135 16.152 67.2402 16.696 67.5175 17.336C67.7308 17.784 67.8375 18.2427 67.8375 18.712C67.8375 19.352 67.6775 19.9387 67.3575 20.472C67.0375 20.984 66.6748 21.3893 66.2695 21.688C66.9735 21.3893 67.6562 20.8667 68.3175 20.12C69.0002 19.352 69.5868 18.5947 70.0775 17.848C70.3975 17.3573 70.6855 16.8987 70.9415 16.472C71.2188 16.024 71.4962 15.5333 71.7735 15C71.8588 14.8507 71.9335 14.776 71.9975 14.776C72.1255 14.776 72.1895 14.9573 72.1895 15.32C72.1895 15.4693 72.1575 15.6507 72.0935 15.864C72.0508 16.0773 71.9762 16.2907 71.8695 16.504C71.4855 17.144 71.1228 17.7413 70.7815 18.296C70.4402 18.8293 70.0242 19.416 69.5335 20.056C68.5522 21.3573 67.5068 22.2853 66.3975 22.84C65.2882 23.3733 63.9762 23.64 62.4615 23.64ZM73.2113 23.192C72.5926 23.192 72.1233 22.9467 71.8033 22.456C71.6539 22.2213 71.5473 21.944 71.4833 21.624C71.4193 21.304 71.3873 20.9733 71.3873 20.632C71.3873 20.2907 71.4086 19.9493 71.4513 19.608C71.4939 19.2453 71.5473 18.8933 71.6113 18.552C71.7179 17.9973 71.8353 17.496 71.9633 17.048C72.1126 16.5787 72.2619 16.1307 72.4113 15.704V15.672C72.2406 15.992 72.0273 16.344 71.7713 16.728C71.5153 17.0907 71.3339 17.3573 71.2273 17.528C71.0779 17.7627 70.9606 17.88 70.8753 17.88C70.7899 17.88 70.7473 17.784 70.7473 17.592C70.7473 17.1653 70.8753 16.696 71.1313 16.184C71.3019 15.8427 71.5366 15.4053 71.8353 14.872C72.1339 14.3173 72.4433 13.72 72.7633 13.08C73.0833 12.44 73.3606 11.8213 73.5953 11.224H71.4513C71.3446 11.224 71.3233 11.1387 71.3873 10.968C71.4513 10.7973 71.5473 10.6373 71.6753 10.488C71.8033 10.3173 71.8993 10.232 71.9633 10.232H74.3953C74.6299 9.67733 74.8966 9.08 75.1953 8.44C75.5153 7.8 75.8673 7.20267 76.2513 6.648C76.6566 6.072 77.0939 5.60267 77.5633 5.24C78.0326 4.87733 78.5339 4.696 79.0673 4.696C79.3019 4.696 79.5899 4.696 79.9313 4.696C80.2939 4.696 80.5179 4.68533 80.6033 4.664C80.1553 4.96267 79.6326 5.56 79.0353 6.456C78.4379 7.33067 77.7873 8.58933 77.0833 10.232H80.3153C80.3793 10.232 80.3579 10.3173 80.2513 10.488C80.1446 10.6373 80.0059 10.7973 79.8353 10.968C79.6859 11.1387 79.5366 11.224 79.3873 11.224H76.6353C76.3579 11.928 76.0486 12.696 75.7073 13.528C75.3873 14.36 75.0886 15.1813 74.8113 15.992C74.5553 16.7813 74.3633 17.5067 74.2352 18.168C74.1499 18.5733 74.1073 18.9467 74.1073 19.288C74.1073 20.0987 74.3633 20.504 74.8753 20.504C75.2166 20.504 75.6219 20.3333 76.0913 19.992C76.5606 19.6507 77.0299 19.1813 77.4993 18.584C77.9259 18.0293 78.3313 17.432 78.7153 16.792C79.1206 16.152 79.4619 15.5653 79.7393 15.032C79.8246 14.8827 79.8993 14.808 79.9633 14.808C80.0913 14.808 80.1553 14.9787 80.1553 15.32C80.1553 15.4907 80.1233 15.6933 80.0593 15.928C80.0166 16.1413 79.9313 16.3547 79.8033 16.568C79.5046 17.08 79.1526 17.6453 78.7473 18.264C78.3419 18.8613 77.9259 19.4587 77.4993 20.056C77.2006 20.44 76.8059 20.8773 76.3153 21.368C75.8459 21.8587 75.3339 22.2853 74.7793 22.648C74.2459 23.0107 73.7233 23.192 73.2113 23.192ZM88.348 23.192C87.6867 23.192 87.228 22.936 86.972 22.424C86.7373 21.912 86.62 21.2827 86.62 20.536C86.62 19.8533 86.684 19.1813 86.812 18.52C86.876 18.2213 86.94 17.9227 87.004 17.624C87.0893 17.304 87.1853 16.9733 87.292 16.632C86.9293 17.2933 86.5453 17.9333 86.14 18.552C85.756 19.1707 85.3613 19.7147 84.956 20.184C84.2733 21.016 83.548 21.7093 82.78 22.264C82.0333 22.8187 81.2867 23.096 80.54 23.096C79.9427 23.096 79.4307 22.8827 79.004 22.456C78.5987 22.008 78.396 21.24 78.396 20.152C78.396 19.0427 78.588 17.9013 78.972 16.728C79.356 15.5547 79.8893 14.4667 80.572 13.464C81.276 12.44 82.0973 11.6187 83.036 11C83.996 10.3813 85.0413 10.072 86.172 10.072C86.5347 10.072 86.9293 10.1253 87.356 10.232C87.7827 10.3387 88.1773 10.5413 88.54 10.84C88.9027 11.1173 89.148 11.512 89.276 12.024C89.2973 11.9813 89.3187 11.9493 89.34 11.928C89.3827 11.9067 89.4147 11.8853 89.436 11.864C89.7347 11.3947 90.076 11 90.46 10.68C90.844 10.36 91.2707 10.2 91.74 10.2C91.9747 10.2 92.3053 10.2107 92.732 10.232C93.1587 10.2533 93.468 10.2533 93.66 10.232C93.5533 10.3173 93.404 10.488 93.212 10.744C93.0413 11 92.8813 11.2667 92.732 11.544C92.5827 11.8 92.4653 12.0027 92.38 12.152C91.804 13.2613 91.2813 14.36 90.812 15.448C90.3427 16.536 89.98 17.5813 89.724 18.584C89.66 18.7973 89.6173 19 89.596 19.192C89.5747 19.3627 89.564 19.5333 89.564 19.704C89.564 20.2587 89.7453 20.536 90.108 20.536C90.4493 20.536 90.876 20.3227 91.388 19.896C92.1347 19.2987 92.7853 18.552 93.34 17.656C93.916 16.76 94.4173 15.896 94.844 15.064C94.9293 14.9147 95.004 14.84 95.068 14.84C95.196 14.84 95.26 15.0213 95.26 15.384C95.26 15.5547 95.228 15.7467 95.164 15.96C95.1213 16.1733 95.0467 16.376 94.94 16.568C94.6413 17.08 94.2467 17.7093 93.756 18.456C93.2867 19.2027 92.7533 19.9387 92.156 20.664C91.5587 21.368 90.9293 21.9653 90.268 22.456C89.628 22.9467 88.988 23.192 88.348 23.192ZM81.98 20.408C82.044 20.4293 82.14 20.44 82.268 20.44C82.6733 20.44 83.1107 20.2693 83.58 19.928C84.0493 19.5867 84.5187 19.1493 84.988 18.616C85.4573 18.0613 85.8733 17.5067 86.236 16.952C87.1747 15.4587 87.868 14.3387 88.316 13.592C88.764 12.8453 89.02 12.4187 89.084 12.312C88.9773 11.9493 88.7853 11.6827 88.508 11.512C88.252 11.3413 87.9427 11.256 87.58 11.256C87.1107 11.256 86.6093 11.384 86.076 11.64C85.564 11.896 85.1267 12.2053 84.764 12.568C84.2093 13.1227 83.676 13.8373 83.164 14.712C82.6733 15.5867 82.268 16.4507 81.948 17.304C81.6493 18.1573 81.5 18.872 81.5 19.448C81.5 19.9813 81.66 20.3013 81.98 20.408ZM96.305 23.192C95.6863 23.192 95.217 22.9467 94.897 22.456C94.7477 22.2213 94.641 21.944 94.577 21.624C94.513 21.304 94.481 20.9733 94.481 20.632C94.481 20.2907 94.5023 19.9493 94.545 19.608C94.5877 19.2453 94.641 18.8933 94.705 18.552C94.8117 17.9973 94.929 17.496 95.057 17.048C95.2063 16.5787 95.3557 16.1307 95.505 15.704V15.672C95.3343 15.992 95.121 16.344 94.865 16.728C94.609 17.0907 94.4277 17.3573 94.321 17.528C94.1717 17.7627 94.0543 17.88 93.969 17.88C93.8837 17.88 93.841 17.784 93.841 17.592C93.841 17.1653 93.969 16.696 94.225 16.184C94.3957 15.8427 94.6303 15.4053 94.929 14.872C95.2277 14.3173 95.537 13.72 95.857 13.08C96.177 12.44 96.4543 11.8213 96.689 11.224H94.545C94.4383 11.224 94.417 11.1387 94.481 10.968C94.545 10.7973 94.641 10.6373 94.769 10.488C94.897 10.3173 94.993 10.232 95.057 10.232H97.489C97.7237 9.67733 97.9903 9.08 98.289 8.44C98.609 7.8 98.961 7.20267 99.345 6.648C99.7503 6.072 100.188 5.60267 100.657 5.24C101.126 4.87733 101.628 4.696 102.161 4.696C102.396 4.696 102.684 4.696 103.025 4.696C103.388 4.696 103.612 4.68533 103.697 4.664C103.249 4.96267 102.726 5.56 102.129 6.456C101.532 7.33067 100.881 8.58933 100.177 10.232H103.409C103.473 10.232 103.452 10.3173 103.345 10.488C103.238 10.6373 103.1 10.7973 102.929 10.968C102.78 11.1387 102.63 11.224 102.481 11.224H99.729C99.4517 11.928 99.1423 12.696 98.801 13.528C98.481 14.36 98.1823 15.1813 97.905 15.992C97.649 16.7813 97.457 17.5067 97.329 18.168C97.2437 18.5733 97.201 18.9467 97.201 19.288C97.201 20.0987 97.457 20.504 97.969 20.504C98.3103 20.504 98.7157 20.3333 99.185 19.992C99.6543 19.6507 100.124 19.1813 100.593 18.584C101.02 18.0293 101.425 17.432 101.809 16.792C102.214 16.152 102.556 15.5653 102.833 15.032C102.918 14.8827 102.993 14.808 103.057 14.808C103.185 14.808 103.249 14.9787 103.249 15.32C103.249 15.4907 103.217 15.6933 103.153 15.928C103.11 16.1413 103.025 16.3547 102.897 16.568C102.598 17.08 102.246 17.6453 101.841 18.264C101.436 18.8613 101.02 19.4587 100.593 20.056C100.294 20.44 99.8997 20.8773 99.409 21.368C98.9397 21.8587 98.4277 22.2853 97.873 22.648C97.3397 23.0107 96.817 23.192 96.305 23.192ZM109.138 22.552C108.156 23.064 107.122 23.32 106.034 23.32C105.116 23.32 104.263 23.096 103.474 22.648C102.684 22.2 102.151 21.4853 101.874 20.504C101.746 20.056 101.682 19.5867 101.682 19.096C101.682 18.2853 101.82 17.4533 102.098 16.6C102.396 15.7253 102.78 14.9253 103.25 14.2C103.975 13.0693 104.892 12.1307 106.002 11.384C107.111 10.6373 108.338 10.264 109.682 10.264C110.684 10.264 111.463 10.52 112.018 11.032C112.572 11.544 112.85 12.1413 112.85 12.824C112.85 13.6347 112.572 14.3493 112.018 14.968C111.484 15.5653 110.78 16.024 109.906 16.344C109.479 16.4933 109.02 16.6107 108.53 16.696C108.06 16.76 107.612 16.792 107.186 16.792C106.311 16.792 105.639 16.6747 105.17 16.44C104.764 17.4853 104.562 18.4453 104.562 19.32C104.562 20.1093 104.743 20.76 105.106 21.272C105.468 21.7627 106.044 22.008 106.834 22.008C107.495 22.008 108.146 21.8267 108.786 21.464C109.447 21.1013 110.055 20.6533 110.61 20.12C111.186 19.5867 111.666 19.0747 112.05 18.584C112.348 18.2213 112.604 17.88 112.818 17.56C113.031 17.24 113.255 16.8773 113.49 16.472C113.724 16.0453 114.002 15.5227 114.322 14.904C114.407 14.7547 114.482 14.68 114.546 14.68C114.674 14.68 114.738 14.8507 114.738 15.192C114.738 15.384 114.706 15.5973 114.642 15.832C114.599 16.0453 114.514 16.2693 114.386 16.504C114.087 17.0373 113.724 17.624 113.298 18.264C112.892 18.8827 112.476 19.48 112.05 20.056C111.666 20.568 111.228 21.0373 110.738 21.464C110.247 21.8907 109.714 22.2533 109.138 22.552ZM106.226 15.736C106.332 15.8 106.45 15.8427 106.578 15.864C106.706 15.8853 106.834 15.896 106.962 15.896C107.388 15.896 107.815 15.8 108.242 15.608C108.668 15.3947 109.031 15.1813 109.33 14.968C109.82 14.6267 110.236 14.2213 110.578 13.752C110.919 13.2827 111.111 12.7493 111.154 12.152C111.175 11.896 111.111 11.6827 110.962 11.512C110.834 11.32 110.599 11.224 110.258 11.224C110.087 11.224 109.874 11.256 109.618 11.32C109.276 11.4053 108.935 11.5653 108.594 11.8C108.252 12.0347 107.922 12.312 107.602 12.632C107.495 12.7387 107.303 12.952 107.026 13.272C106.77 13.5707 106.524 13.912 106.29 14.296C106.055 14.6587 105.938 14.9787 105.938 15.256C105.938 15.4907 106.034 15.6507 106.226 15.736Z" fill="white"/>
</svg>
