<svg width="200" height="200" viewBox="0 0 200 200" fill="none" xmlns="http://www.w3.org/2000/svg">
<g clip-path="url(#clip0_1_2)">
<rect width="200" height="200" fill="white"/>
<path d="M84.7805 143.024C81.5378 143.024 79.0632 142.171 77.3565 140.464C75.6498 138.757 74.4978 136.581 73.9005 133.936C73.3032 131.291 72.9192 128.56 72.7485 125.744C72.7485 124.123 72.8338 122.203 73.0045 119.984C73.1752 117.765 73.3885 115.632 73.6445 113.584C73.9858 111.451 74.2418 109.872 74.4125 108.848H45.1005C39.6392 114.565 34.4338 120.155 29.4845 125.616C24.6205 130.992 19.8418 136.453 15.1485 142H2.3485C4.56717 139.952 7.4685 137.221 11.0525 133.808C14.7218 130.309 18.8605 126.341 23.4685 121.904C28.0765 117.467 32.8552 112.773 37.8045 107.824C42.8392 102.789 47.8738 97.7547 52.9085 92.72C57.9432 87.6 62.6792 82.6933 67.1165 78C71.6392 73.2213 75.6498 68.912 79.1485 65.072C80.8552 63.1947 82.4338 61.3173 83.8845 59.44C85.4205 57.4773 87.1272 55.856 89.0045 54.576C90.8818 53.296 93.1858 52.656 95.9165 52.656H105.133C103.682 54.0213 102.231 56.3253 100.781 59.568C99.3298 62.8107 98.0072 66.3093 96.8125 70.064C95.7032 73.8187 94.7645 77.232 93.9965 80.304C92.8872 84.912 91.7352 89.904 90.5405 95.28C89.4312 100.656 88.5352 105.989 87.8525 111.28C87.1698 116.571 86.9565 121.477 87.2125 126C87.2978 127.621 87.5965 129.328 88.1085 131.12C88.7058 132.827 89.5165 134.32 90.5405 135.6C91.6498 136.795 93.0152 137.392 94.6365 137.392C96.0872 137.392 97.6658 136.837 99.3725 135.728L100.141 136.88C99.0312 138.587 96.8978 140.037 93.7405 141.232C90.6685 142.427 87.6818 143.024 84.7805 143.024ZM33.5805 78.128C32.2152 76.6773 31.1912 75.184 30.5085 73.648C29.9112 72.112 29.6125 70.6613 29.6125 69.296C29.6125 67.5893 29.9538 65.968 30.6365 64.432C31.4045 62.8107 32.3005 61.4453 33.3245 60.336C35.3725 58.032 37.9325 56.3253 41.0045 55.216C44.0765 54.1067 47.3192 53.424 50.7325 53.168C54.2312 52.8267 57.5592 52.656 60.7165 52.656H89.3885C87.5965 54.448 84.8658 55.856 81.1965 56.88C77.6125 57.8187 73.6872 58.544 69.4205 59.056C65.1538 59.4827 61.0152 59.9093 57.0045 60.336C53.0792 60.6773 49.8365 61.1467 47.2765 61.744C42.7538 62.768 39.2978 64.7307 36.9085 67.632C34.6045 70.5333 33.4952 74.032 33.5805 78.128ZM50.7325 102.448H75.3085C76.3325 96.816 77.5272 91.184 78.8925 85.552C80.3432 79.92 81.6232 74.9707 82.7325 70.704C77.5272 75.6533 72.1938 80.816 66.7325 86.192C61.3565 91.4827 56.0232 96.9013 50.7325 102.448ZM109.588 142C108.222 142 107.198 141.445 106.516 140.336C105.918 139.227 105.62 137.776 105.62 135.984C105.62 133.509 106.004 130.608 106.772 127.28C107.625 123.952 108.649 120.496 109.844 116.912C111.124 113.328 112.404 109.915 113.684 106.672C114.964 103.344 116.073 100.528 117.012 98.224H109.972C109.289 98.224 108.948 97.968 108.948 97.456C108.948 96.944 109.332 96.2613 110.1 95.408C110.868 94.4693 111.764 93.6587 112.788 92.976C113.812 92.2933 114.665 91.952 115.348 91.952H119.7C121.833 86.9173 123.838 82.224 125.716 77.872C127.593 73.4347 129.94 68.7413 132.756 63.792C133.438 62.5973 134.078 61.488 134.676 60.464C135.273 59.3547 135.956 58.3733 136.724 57.52C132.116 58.1173 127.38 59.0133 122.516 60.208C117.737 61.4027 113.47 62.9387 109.716 64.816C105.961 66.6933 103.315 68.912 101.779 71.472C101.694 71.728 101.523 71.856 101.267 71.856C101.097 71.856 100.969 71.6853 100.883 71.344C100.713 71.0027 100.67 70.6187 100.755 70.192C101.609 67.9733 102.675 65.84 103.956 63.792C105.236 61.744 106.473 60.1227 107.668 58.928C109.545 56.9653 112.105 55.5573 115.348 54.704C118.59 53.8507 121.918 53.296 125.332 53.04C128.83 52.784 131.817 52.656 134.292 52.656H159.636C162.622 52.656 165.268 52.5707 167.572 52.4C169.961 52.144 171.966 52.016 173.588 52.016C176.233 52.016 177.769 52.656 178.196 53.936C178.281 54.2773 178.324 54.6187 178.324 54.96C178.409 55.216 178.451 55.5573 178.451 55.984C178.451 57.6907 178.068 59.6533 177.3 61.872C176.532 64.0053 175.678 66.096 174.74 68.144C173.886 70.1067 173.204 71.728 172.692 73.008C172.606 73.4347 172.35 73.7333 171.924 73.904C171.582 74.0747 171.241 74.16 170.9 74.16C170.473 74.16 170.089 74.0747 169.748 73.904C169.492 73.7333 169.406 73.1787 169.492 72.24C169.662 71.216 169.876 70.064 170.132 68.784C170.388 67.504 170.516 66.3947 170.516 65.456C170.516 62.7253 169.406 60.6347 167.188 59.184C165.054 57.648 162.366 56.88 159.124 56.88C156.734 56.88 154.772 57.0933 153.236 57.52C151.7 57.8613 150.462 58.7573 149.524 60.208C146.11 65.2427 142.996 70.4053 140.18 75.696C137.449 80.9867 134.889 86.4053 132.5 91.952H165.908C166.164 91.952 165.993 92.464 165.396 93.488C164.884 94.512 164.201 95.5787 163.348 96.688C162.58 97.712 161.897 98.224 161.3 98.224H129.684C128.745 100.613 127.636 103.515 126.356 106.928C125.076 110.341 123.881 113.712 122.772 117.04C121.748 120.368 120.937 123.227 120.34 125.616C119.828 127.664 119.572 129.499 119.572 131.12C119.572 133.253 120.212 134.875 121.492 135.984C122.857 137.093 125.204 137.648 128.532 137.648C133.14 137.648 137.748 137.477 142.356 137.136C146.964 136.709 151.486 135.856 155.924 134.576C159.764 133.467 163.177 131.973 166.164 130.096C169.236 128.219 171.454 125.872 172.82 123.056C172.99 122.715 173.246 122.544 173.588 122.544C174.185 122.544 174.484 123.013 174.484 123.952C174.484 124.123 174.441 124.336 174.356 124.592C174.356 124.848 174.313 125.147 174.228 125.488C173.545 127.707 172.734 129.669 171.796 131.376C170.857 133.083 169.876 134.533 168.852 135.728C166.462 138.629 163.39 140.421 159.636 141.104C155.881 141.701 152.126 142 148.372 142H109.588Z" fill="#111111"/>
</g>
<defs>
<clipPath id="clip0_1_2">
<rect width="200" height="200" fill="white"/>
</clipPath>
</defs>
</svg>
